<svg id="f3fb08ac-b37c-46d7-a556-7b931c8a5527" data-name="Button" xmlns="http://www.w3.org/2000/svg" viewBox="0 0 200 200"><defs><style>.b56b7db6-de38-4f79-be6e-a589c70d54cf{fill:#fff;}</style></defs><path class="b56b7db6-de38-4f79-be6e-a589c70d54cf" d="M177.41,81.79H143.62a23.09,23.09,0,0,1-4.84,25.42L100,146V159.2a13.67,13.67,0,0,0,13.66,13.66h63.75a13.66,13.66,0,0,0,13.66-13.66V95.45A13.65,13.65,0,0,0,177.41,81.79Zm-31.87,52.36a6.83,6.83,0,1,1,6.83-6.83A6.83,6.83,0,0,1,145.54,134.15ZM132.34,81,82.55,31.23a14,14,0,0,0-19.75,0L13,81a14,14,0,0,0,0,19.75L62.8,150.55a14,14,0,0,0,19.75,0l49.79-49.78A14,14,0,0,0,132.34,81ZM36.25,97.72a6.83,6.83,0,1,1,6.83-6.83A6.83,6.83,0,0,1,36.25,97.72Zm36.43,36.43a6.83,6.83,0,1,1,6.83-6.83A6.83,6.83,0,0,1,72.68,134.15Zm0-36.43a6.83,6.83,0,1,1,6.83-6.83A6.83,6.83,0,0,1,72.68,97.72Zm0-36.43a6.83,6.83,0,1,1,6.83-6.83A6.83,6.83,0,0,1,72.68,61.29Zm36.43,36.43a6.83,6.83,0,1,1,6.83-6.83A6.83,6.83,0,0,1,109.11,97.72Z"/></svg>