<svg id="ae01b8d1-1dab-4184-9caf-b50912c3779d" data-name="Button" xmlns="http://www.w3.org/2000/svg" viewBox="0 0 200 200"><defs><style>.f9714a32-0dc6-4ffb-b8dc-6be65375a355{fill:#1e272e;}</style></defs><path class="f9714a32-0dc6-4ffb-b8dc-6be65375a355" d="M162.14,84.46h-46.6V37.86A10.36,10.36,0,0,0,105.18,27.5H94.82A10.36,10.36,0,0,0,84.46,37.86v46.6H37.86A10.36,10.36,0,0,0,27.5,94.82v10.36a10.36,10.36,0,0,0,10.36,10.36h46.6v46.6A10.36,10.36,0,0,0,94.82,172.5h10.36a10.36,10.36,0,0,0,10.36-10.36v-46.6h46.6a10.36,10.36,0,0,0,10.36-10.36V94.82A10.36,10.36,0,0,0,162.14,84.46Z"/></svg>