<svg id="ff82e10c-6b14-48a9-a776-06a7f01e54a3" data-name="Button" xmlns="http://www.w3.org/2000/svg" viewBox="0 0 200 200"><defs><style>.b6d955da-1f3c-494b-aee3-e0d1358f433a{fill:#fff;}</style></defs><path class="b6d955da-1f3c-494b-aee3-e0d1358f433a" d="M46.76,145.31V121.52a3.41,3.41,0,0,1,3.4-3.4H61.49a3.41,3.41,0,0,1,3.4,3.4v23.79A9.05,9.05,0,0,0,74,154.38h54.38a9.05,9.05,0,0,0,9.06-9.07V121.52a3.41,3.41,0,0,1,3.4-3.4h11.33a3.41,3.41,0,0,1,3.39,3.4v23.79a27.19,27.19,0,0,1-27.18,27.19H74A27.2,27.2,0,0,1,46.76,145.31ZM103.69,132l47.58-47.58a6.81,6.81,0,0,0-4.82-11.61H119.26V34.3a6.78,6.78,0,0,0-6.79-6.8H85.28a6.78,6.78,0,0,0-6.8,6.8V72.81H51.3a6.81,6.81,0,0,0-4.82,11.61L94.06,132A6.84,6.84,0,0,0,103.69,132Z"/></svg>