<svg id="a58895fd-2508-4966-9953-e5a9b03c140e" data-name="Calque 1" xmlns="http://www.w3.org/2000/svg" viewBox="0 0 270 94"><defs><style>.feb62e90-76e5-43cf-a5b6-137bf7cfaaac{fill:#933cff;}.a059da77-31f1-4235-835b-d981352466f5{fill:#dfe5f2;}</style></defs><path class="feb62e90-76e5-43cf-a5b6-137bf7cfaaac" d="M59.66,47.88a11.13,11.13,0,0,0-7.39-3.72,6.57,6.57,0,0,0,3.67-3.59,15.36,15.36,0,0,0,1.06-6V30.64a14.54,14.54,0,0,0-3.59-10.19q-3.6-3.91-13.06-3.92H12.21a3.2,3.2,0,0,0-2.32.71,3.2,3.2,0,0,0-.72,2.33V74.33a3.18,3.18,0,0,0,.72,2.32,3.16,3.16,0,0,0,2.32.72h13a3.2,3.2,0,0,0,2.33-.72,3.18,3.18,0,0,0,.72-2.32V57.76H40.1a3,3,0,0,1,2.49.89,4.33,4.33,0,0,1,.72,2.75V74.33a2.61,2.61,0,0,0,3,3h13.1a2.61,2.61,0,0,0,3-3V56.41A12.41,12.41,0,0,0,59.66,47.88Zm-21.34-9.3a5,5,0,0,1-.76,2.83c-.5.76-1.49,1.14-3,1.14H28.27V31.74h6.34c1.46,0,2.45.38,3,1.14a5,5,0,0,1,.76,2.83Z"/><path class="feb62e90-76e5-43cf-a5b6-137bf7cfaaac" d="M202.1,47.71V74.33a2.61,2.61,0,0,1-3,3H156a2.61,2.61,0,0,1-3-3V19.57a3.2,3.2,0,0,1,.72-2.33,3.2,3.2,0,0,1,2.32-.71h13.1a3.22,3.22,0,0,1,2.32.71,3.2,3.2,0,0,1,.72,2.33V61.4h11.58V47.71a2.6,2.6,0,0,1,3-3h12.25a3.25,3.25,0,0,1,2.33.71A3.2,3.2,0,0,1,202.1,47.71Z"/><path class="feb62e90-76e5-43cf-a5b6-137bf7cfaaac" d="M260.83,47.71V74.33a2.61,2.61,0,0,1-3,3h-43a2.61,2.61,0,0,1-3-3V19.57a3.2,3.2,0,0,1,.72-2.33,3.22,3.22,0,0,1,2.32-.71h13.1a3.2,3.2,0,0,1,2.32.71,3.2,3.2,0,0,1,.72,2.33V61.4h11.58V47.71a2.6,2.6,0,0,1,3-3h12.26a2.6,2.6,0,0,1,3,3Z"/><path class="a059da77-31f1-4235-835b-d981352466f5" d="M143.05,26.83c-.26.09-.52.17-.78.28L111.76,39.92a3.49,3.49,0,0,0-2.46,3.69V83.22c0,1.81.69,2.22,2.32,1.37l.19-.11Q127,76.33,142.19,68.21a4.66,4.66,0,0,0,2.53-2.78v-38A1.17,1.17,0,0,0,143.05,26.83ZM121.68,55.94a3.26,3.26,0,0,1-4.52-2.37c-.84-3.21,1.5-7.72,4.61-8.89a3.36,3.36,0,0,1,4.8,3c0,.25,0,.5,0,.75C126.56,51.65,124.37,55,121.68,55.94Zm11.9,8.31a3.09,3.09,0,0,1-4.46-2.5,8.51,8.51,0,0,1,4.12-8.29c2.62-1.33,4.92.31,4.9,3.48C138.11,60,136,63.27,133.58,64.25Z"/><path class="a059da77-31f1-4235-835b-d981352466f5" d="M106.29,63.45V43.72a3.55,3.55,0,0,0-2.51-3.81l-23.89-10c-2.44-1-4.88-2.06-7.34-3-1.1-.43-1.65,0-1.65,1.14q0,18.47,0,36.91a2.75,2.75,0,0,0,.84,2.1,7.47,7.47,0,0,0,1.56,1.13q9,4.84,18,9.64L104,84.61c1.36.72,2.34.54,2.32-1.35C106.26,76.66,106.29,70.06,106.29,63.45Zm-23.78,1C82,67,79.78,67.94,77.6,66.58c-2.56-1.58-3.69-4-4-7.2a10.91,10.91,0,0,1,.42-1.79,2.82,2.82,0,0,1,3.78-1.73A7.29,7.29,0,0,1,82,60.3,6.9,6.9,0,0,1,82.51,64.48Zm9.79-7c-.52,2.43-2.55,3.42-4.85,2.38a8.44,8.44,0,0,1-4.29-8.4c.54-2.65,2.8-3.67,5.17-2.33a8.69,8.69,0,0,1,4.11,7A9.83,9.83,0,0,1,92.3,57.5Zm6.4-4.57A6,6,0,0,1,96,51.54a7.85,7.85,0,0,1-2.87-7.47c.47-2.65,2.84-3.71,5.24-2.49a8.55,8.55,0,0,1,4.42,7.26C102.8,51.61,101.13,53.39,98.7,52.93Z"/><path class="a059da77-31f1-4235-835b-d981352466f5" d="M140.78,20.43q-16-5.65-32-11.27a3.28,3.28,0,0,0-2,0Q90.82,14.73,74.92,20.4c-.73.25-1.52.56-1.52,1.44s.74,1.17,1.43,1.46l31.35,13a13.24,13.24,0,0,0,1.59.43,11.39,11.39,0,0,0,1.53-.4l31.57-13c.62-.26,1.19-.6,1.15-1.39A1.58,1.58,0,0,0,140.78,20.43Zm-28.49,3.38a11.34,11.34,0,0,1-4.75.85c0,.07,0,.15-.05.22-1.5-.33-3-.59-4.49-1a2.26,2.26,0,0,1-1.88-2.08c0-1.16.83-1.79,1.8-2.16a13.1,13.1,0,0,1,9.37,0,2.3,2.3,0,0,1,1.81,2.15C114.08,22.86,113.21,23.41,112.29,23.81Z"/></svg>